<?xml version="1.0" standalone="no"?>
<!DOCTYPE svg PUBLIC "-//W3C//DTD SVG 20010904//EN"
 "http://www.w3.org/TR/2001/REC-SVG-20010904/DTD/svg10.dtd">
<svg version="1.0" xmlns="http://www.w3.org/2000/svg"
 width="557.000000pt" height="557.000000pt" viewBox="0 0 557.000000 557.000000"
 preserveAspectRatio="xMidYMid meet">
<metadata>
Created by potrace 1.14, written by Peter Selinger 2001-2017
</metadata>
<g transform="translate(0.000000,557.000000) scale(0.100000,-0.100000)"
fill="#000000" stroke="none">
<path d="M2710 5531 c0 -7 -6 -11 -15 -7 -8 3 -21 -2 -30 -10 -8 -9 -15 -11
-15 -5 0 6 -7 7 -17 4 -12 -5 -14 -3 -8 7 5 9 4 11 -4 6 -6 -4 -9 -11 -7 -15
3 -4 -8 -6 -25 -5 -18 1 -33 -4 -40 -14 -8 -14 -9 -14 -4 4 3 14 1 21 -9 21
-8 0 -12 -6 -9 -14 4 -11 0 -11 -21 -3 -16 6 -25 6 -21 1 3 -5 0 -13 -6 -17
-7 -4 -9 -3 -6 3 4 6 1 16 -7 22 -10 9 -15 8 -20 -4 -4 -11 -2 -14 6 -9 6 4 8
3 4 -4 -3 -6 -15 -10 -26 -9 -16 1 -17 4 -7 17 10 13 10 13 -5 2 -10 -8 -23
-10 -30 -6 -10 6 -11 5 -1 -7 11 -13 8 -15 -17 -11 -17 2 -27 9 -23 15 3 6 1
7 -6 3 -8 -5 -9 -12 -2 -20 7 -8 5 -12 -9 -12 -10 0 -16 4 -13 9 3 5 -6 2 -19
-7 -14 -9 -27 -14 -30 -11 -3 3 -15 7 -27 10 -15 3 -21 -1 -21 -13 0 -13 -2
-14 -9 -3 -7 11 -9 11 -14 0 -4 -10 -6 -10 -6 -1 -1 6 -6 12 -12 12 -6 0 -9
-7 -6 -14 4 -10 1 -13 -9 -9 -7 3 -14 10 -14 16 0 6 -3 7 -6 4 -4 -4 -2 -12 4
-19 8 -10 4 -13 -15 -15 -18 -1 -22 1 -12 8 10 6 8 8 -9 6 -25 -1 -27 -7 -9
-27 10 -12 9 -12 -6 0 -21 16 -59 21 -51 8 4 -5 13 -7 23 -3 12 5 13 3 5 -5
-9 -9 -18 -9 -35 1 -23 12 -23 11 -9 -6 12 -15 12 -17 1 -10 -11 6 -13 4 -8
-11 7 -18 7 -18 -8 0 -14 19 -21 11 -16 -17 1 -5 -3 -6 -8 -2 -6 3 -9 11 -7
18 1 7 1 9 -1 4 -3 -4 -9 -5 -14 -2 -5 4 -6 -1 -3 -9 4 -11 -1 -14 -20 -12
-14 2 -26 -1 -26 -5 0 -5 -5 -9 -11 -9 -5 0 -8 4 -5 9 4 5 -3 7 -14 4 -11 -3
-20 -10 -20 -15 0 -5 5 -6 12 -2 7 4 8 3 4 -5 -4 -6 -12 -9 -17 -6 -5 4 -9 1
-9 -6 0 -7 -6 -4 -14 6 -14 19 -15 19 -27 -7 -6 -15 -15 -25 -19 -23 -3 2 -19
-3 -34 -11 -35 -17 -39 -18 -30 -1 3 6 -8 -5 -26 -26 -17 -20 -35 -35 -40 -32
-5 3 -11 1 -15 -5 -4 -6 -11 -8 -16 -5 -5 4 -9 2 -9 -4 0 -6 -7 -7 -17 -4 -11
4 -14 3 -9 -5 4 -7 3 -12 -3 -12 -5 0 -12 6 -15 13 -4 6 -4 2 -2 -10 2 -15 0
-20 -10 -16 -7 2 -10 12 -8 21 5 15 4 14 -6 -1 -6 -9 -8 -22 -4 -29 4 -7 3 -8
-4 -4 -7 4 -12 1 -12 -6 0 -9 -3 -9 -10 2 -8 13 -11 13 -22 1 -9 -10 -10 -12
-1 -7 8 4 11 2 8 -6 -3 -8 -15 -15 -28 -15 -18 -2 -19 0 -7 8 13 9 13 10 0 6
-8 -2 -14 -12 -14 -21 1 -11 -2 -14 -10 -8 -14 12 -47 12 -40 0 3 -5 9 -6 14
-3 5 3 12 0 16 -6 4 -8 3 -9 -4 -5 -7 4 -12 2 -12 -5 0 -9 -3 -10 -11 -2 -13
13 -51 5 -42 -10 4 -6 -2 -8 -15 -5 -18 5 -20 3 -12 -11 6 -12 5 -18 -3 -19
-34 -3 -52 -11 -49 -22 2 -7 -3 -10 -11 -7 -7 3 -19 -4 -26 -14 -6 -11 -16
-17 -21 -14 -15 9 -12 -2 5 -18 13 -13 13 -16 -1 -21 -8 -3 -12 -2 -9 4 3 6
-1 10 -10 10 -10 0 -15 -7 -13 -17 2 -13 -3 -18 -19 -17 -12 0 -21 -2 -19 -5
2 -3 0 -16 -5 -28 -6 -16 -14 -21 -31 -18 -23 4 -23 4 -3 -11 19 -14 19 -15
-10 -10 -29 5 -29 5 -10 -11 20 -15 20 -15 -1 -11 -17 4 -20 1 -18 -18 1 -13
-2 -22 -7 -18 -5 3 -7 10 -4 15 4 5 1 9 -5 9 -13 0 -9 -31 5 -43 6 -5 -1 -5
-14 -2 -16 5 -21 4 -17 -4 4 -6 0 -11 -9 -11 -17 0 -17 -30 0 -42 6 -5 6 -8
-2 -8 -7 0 -17 8 -23 18 -8 14 -9 13 -6 -9 4 -23 1 -26 -20 -23 -25 2 -33 -11
-11 -19 7 -3 6 -6 -5 -6 -9 -1 -20 -6 -24 -13 -5 -7 -3 -8 6 -3 9 5 11 4 6 -3
-4 -7 -14 -12 -22 -12 -8 0 -14 -6 -14 -14 0 -7 -10 -16 -21 -19 -15 -4 -20
-11 -15 -23 5 -12 2 -15 -10 -10 -15 6 -15 4 -3 -10 12 -15 12 -16 -8 -10 -12
4 -24 2 -28 -4 -4 -6 -1 -9 6 -8 6 2 14 -4 17 -12 2 -8 1 -12 -3 -8 -4 4 -14
1 -21 -7 -16 -15 -19 -29 -5 -20 5 3 13 1 16 -5 4 -6 3 -10 -2 -9 -28 5 -42
-2 -36 -18 5 -12 3 -14 -7 -8 -9 6 -11 4 -5 -5 4 -7 2 -16 -6 -21 -10 -6 -11
-9 -1 -9 6 0 12 -5 12 -11 0 -6 -6 -9 -13 -6 -8 3 -14 -3 -14 -15 -2 -17 0
-18 14 -6 15 11 15 10 0 -13 -10 -14 -14 -29 -10 -33 4 -4 0 -4 -9 -1 -9 4
-19 1 -23 -5 -3 -6 -3 -10 2 -9 22 4 25 -3 7 -17 -13 -11 -14 -14 -3 -11 9 3
16 -1 16 -8 0 -8 -9 -12 -26 -9 -17 3 -22 2 -13 -4 8 -5 12 -20 10 -33 -2 -17
1 -23 12 -21 8 2 11 0 7 -5 -5 -4 -14 -8 -20 -8 -7 0 -12 -7 -12 -15 0 -20
-18 -39 -29 -32 -5 3 -6 0 -2 -7 6 -9 12 -9 24 1 14 11 14 9 -1 -8 -9 -11 -17
-28 -17 -38 0 -9 -4 -15 -8 -12 -5 3 -9 -1 -9 -9 0 -8 5 -11 10 -8 6 3 7 1 3
-5 -3 -5 0 -13 6 -16 7 -3 3 -3 -9 0 -19 4 -21 2 -17 -21 3 -20 1 -25 -8 -19
-7 4 -5 -2 5 -13 12 -14 15 -23 7 -28 -5 -3 -8 -11 -5 -16 3 -5 0 -6 -8 -3 -8
3 -14 -1 -14 -10 0 -8 7 -12 16 -9 11 3 10 0 -4 -12 -21 -17 -27 -55 -10 -67
6 -5 6 -8 -2 -8 -7 0 -13 -8 -13 -18 0 -10 -4 -23 -10 -30 -7 -9 -7 -9 2 -2 7
6 15 10 19 10 9 0 5 -27 -6 -37 -4 -4 -5 -2 0 6 5 9 4 12 -3 8 -5 -4 -8 -16
-5 -28 4 -12 0 -25 -8 -31 -11 -8 -10 -9 4 -4 14 5 16 1 11 -22 -4 -15 -12
-30 -18 -34 -7 -5 -5 -8 6 -8 9 0 19 6 22 13 2 6 4 2 2 -10 -1 -12 -6 -26 -11
-30 -4 -5 -5 -2 0 6 6 10 4 12 -5 6 -10 -6 -9 -11 4 -21 16 -12 16 -13 -1 -17
-16 -4 -16 -5 2 -6 17 -1 18 -3 5 -12 -12 -9 -11 -10 8 -6 12 3 20 1 16 -4 -3
-5 -13 -9 -22 -9 -15 0 -15 -2 -2 -10 12 -8 10 -10 -10 -11 -23 0 -23 -1 -5
-8 11 -5 27 -6 35 -3 8 2 6 -2 -5 -11 -11 -8 -17 -19 -13 -22 4 -4 2 -17 -4
-29 -10 -19 -9 -19 4 -8 13 10 18 10 24 1 4 -8 3 -9 -4 -5 -8 5 -12 -4 -12
-28 0 -19 6 -37 13 -39 9 -4 9 -6 -1 -6 -10 -1 -10 -4 0 -15 7 -8 18 -11 23
-8 6 3 4 -2 -4 -11 -15 -19 -7 -52 10 -41 8 4 9 3 5 -5 -4 -6 -12 -8 -18 -5
-6 4 -9 1 -6 -7 3 -8 14 -13 24 -11 16 3 16 1 -4 -13 -16 -12 -20 -20 -13 -28
5 -7 9 -16 9 -22 0 -5 9 -12 19 -16 14 -6 15 -8 2 -8 -9 -1 -16 -8 -16 -16 0
-11 4 -12 14 -3 7 6 16 8 20 4 3 -3 1 -6 -6 -6 -8 0 -11 -6 -7 -16 4 -10 2
-13 -7 -9 -6 4 -4 0 6 -8 10 -8 17 -21 16 -29 -3 -27 1 -39 13 -32 8 5 9 2 5
-9 -4 -11 -1 -17 8 -17 8 0 15 -5 15 -11 0 -5 -5 -7 -11 -3 -8 4 -8 0 0 -15 7
-11 14 -21 17 -21 3 0 3 4 -1 9 -3 5 -1 12 4 15 5 4 8 -2 6 -11 -2 -10 -4 -18
-5 -18 -1 0 -3 -8 -5 -18 -2 -9 1 -15 6 -11 5 3 6 11 2 17 -4 7 0 6 10 -2 18
-15 23 -26 7 -16 -6 3 -10 1 -10 -4 0 -6 5 -11 11 -11 8 0 7 -6 -2 -17 -12
-15 -12 -16 4 -10 10 4 16 3 12 -2 -3 -5 1 -12 7 -14 10 -4 10 -6 0 -6 -10 -1
-9 -5 3 -17 13 -14 14 -19 3 -25 -10 -7 -10 -9 2 -10 8 -1 22 -1 30 0 11 1 12
0 2 -7 -13 -9 -13 -64 0 -56 5 3 6 10 3 15 -3 5 1 6 10 2 9 -3 12 -9 7 -12 -5
-3 -10 -18 -10 -33 0 -15 4 -25 9 -22 5 3 9 -6 9 -20 0 -14 5 -26 11 -26 6 0
9 -9 6 -20 -3 -13 0 -20 10 -20 8 0 11 5 7 12 -5 7 -3 8 6 3 10 -6 9 -11 -5
-22 -18 -12 -17 -13 6 -14 13 0 18 -3 12 -6 -10 -3 -9 -8 2 -19 8 -8 13 -20
11 -27 -1 -7 -1 -8 2 -3 3 5 11 -4 18 -20 8 -17 12 -21 11 -10 -1 10 5 21 13
23 12 4 12 3 1 -5 -8 -6 -9 -12 -3 -16 5 -3 9 -21 8 -40 -1 -25 2 -32 13 -28
9 3 12 1 7 -6 -4 -8 -2 -10 7 -6 19 7 32 -12 16 -22 -8 -5 -9 -3 -4 6 6 9 4
11 -5 5 -10 -6 -7 -12 11 -26 13 -9 28 -15 34 -11 5 3 3 -3 -5 -13 -9 -11 -10
-16 -2 -11 8 4 12 1 12 -10 0 -12 6 -15 21 -11 16 4 18 3 9 -8 -7 -8 -7 -14
-1 -17 6 -1 12 -14 14 -28 3 -16 10 -24 20 -22 10 2 14 -4 12 -15 -4 -27 5
-36 21 -22 9 7 14 8 13 3 -3 -19 1 -34 12 -34 5 0 7 5 3 12 -5 7 -3 8 5 3 9
-5 9 -11 3 -17 -7 -7 -7 -15 -1 -22 5 -6 17 -20 25 -31 9 -11 13 -15 10 -8 -4
6 -1 15 5 19 7 4 9 3 5 -4 -3 -6 -2 -14 4 -17 8 -5 7 -12 -2 -23 -10 -12 -10
-14 -1 -8 22 13 53 15 53 4 0 -5 -6 -8 -13 -5 -8 3 -14 -1 -14 -9 0 -7 4 -11
9 -8 4 3 13 -7 20 -21 8 -19 17 -25 31 -21 14 3 17 2 9 -6 -13 -13 -4 -38 14
-38 8 0 14 -4 14 -10 0 -5 5 -10 11 -10 5 0 7 5 3 12 -4 6 -3 8 3 5 6 -4 9
-18 8 -32 -2 -14 1 -23 6 -19 5 3 6 10 3 16 -5 7 -2 8 5 4 7 -5 10 -14 7 -21
-5 -13 29 -32 47 -27 5 1 6 -2 2 -8 -3 -6 -11 -8 -16 -5 -5 3 -6 -1 -3 -10 5
-11 10 -12 18 -5 16 13 37 -7 29 -28 -5 -11 -3 -13 7 -7 10 6 12 4 6 -10 -5
-15 -4 -16 9 -5 13 10 15 9 15 -8 0 -12 5 -24 10 -27 6 -4 7 -11 4 -17 -4 -7
-2 -8 5 -4 8 6 9 12 2 20 -8 9 -7 13 3 13 7 0 12 -10 11 -21 -2 -31 5 -39 23
-24 12 10 14 10 8 0 -4 -6 -2 -12 3 -12 6 0 11 -5 11 -11 0 -5 -4 -8 -8 -5 -5
3 -9 -1 -9 -9 0 -8 5 -11 11 -7 6 3 20 8 31 9 16 3 17 1 5 -7 -14 -9 -7 -14
13 -11 4 1 2 -9 -4 -21 -11 -20 -11 -22 4 -10 13 11 16 10 22 -7 6 -21 16 -25
44 -21 13 2 13 0 0 -16 -8 -11 -9 -15 -1 -10 7 4 12 1 12 -8 0 -9 3 -15 8 -15
20 3 32 -2 32 -16 0 -8 -5 -15 -12 -15 -6 0 -8 -3 -5 -6 4 -4 14 -1 24 7 9 8
14 9 10 2 -4 -6 -4 -18 -1 -27 5 -13 9 -14 20 -5 11 9 15 8 20 -5 3 -9 11 -13
17 -9 6 4 7 1 2 -7 -6 -10 -11 -10 -20 4 -11 15 -13 15 -19 1 -3 -9 -2 -13 4
-10 6 3 13 -1 16 -10 5 -12 9 -13 20 -4 12 10 13 9 8 -5 -9 -24 15 -50 33 -35
7 7 16 9 20 5 3 -3 1 -6 -5 -6 -7 0 -12 -5 -12 -11 0 -6 7 -8 17 -5 10 4 14 4
10 0 -4 -4 1 -13 11 -21 9 -8 11 -12 5 -8 -8 4 -11 1 -7 -9 3 -8 14 -13 24
-11 18 3 21 -10 8 -31 -4 -6 -1 -11 7 -11 8 0 12 4 9 9 -3 4 -1 8 4 8 6 0 13
-7 16 -16 3 -9 11 -12 18 -8 10 6 10 4 0 -8 -8 -10 -9 -19 -3 -22 5 -4 12 -2
16 4 4 6 11 8 16 4 6 -4 6 -10 -1 -19 -7 -9 -6 -16 7 -26 11 -9 14 -10 9 -1
-4 6 -3 12 3 12 6 0 14 -12 17 -27 7 -25 8 -25 15 -8 4 11 8 15 8 8 1 -7 8
-10 19 -6 14 5 14 3 -3 -11 -20 -17 -20 -17 3 -12 23 4 23 4 7 -14 -16 -18
-16 -18 4 -13 25 6 88 -43 83 -65 -2 -10 2 -13 12 -9 10 4 13 1 10 -7 -7 -17
31 -27 47 -12 10 8 10 7 0 -6 -7 -10 -17 -15 -22 -12 -5 3 -9 1 -9 -4 0 -6 7
-13 16 -16 8 -3 12 -2 9 4 -3 6 -1 10 4 10 6 0 11 -5 11 -11 0 -5 6 -7 13 -3
8 5 8 2 -2 -9 -12 -15 -11 -17 5 -18 11 -1 22 -1 25 -1 4 1 5 -8 2 -18 -3 -12
0 -20 6 -20 7 0 9 5 5 12 -4 6 -3 8 4 5 5 -4 8 -15 6 -25 -4 -12 5 -22 30 -33
19 -9 37 -12 40 -7 2 5 3 3 2 -4 -2 -7 -8 -13 -13 -13 -6 0 -14 -3 -18 -7 -4
-3 5 -5 19 -4 15 2 29 -1 33 -7 3 -6 1 -7 -5 -3 -7 4 -12 2 -12 -3 0 -6 6 -11
13 -11 8 0 22 -9 33 -21 15 -17 16 -23 5 -41 -7 -11 -8 -17 -3 -14 14 8 44
-23 36 -36 -4 -7 -2 -8 4 -4 14 8 0 41 -20 49 -9 4 -9 6 -1 6 16 1 74 -80 66
-93 -4 -6 2 -4 12 4 11 9 16 10 11 3 -4 -7 -2 -14 3 -14 6 -1 15 -2 20 -3 5 0
13 -5 18 -10 5 -5 3 -6 -4 -2 -9 5 -13 -1 -13 -18 0 -24 12 -32 42 -27 3 0 2
-14 -3 -31 -6 -23 -6 -29 3 -20 8 8 14 7 24 -3 15 -15 19 -29 6 -21 -5 3 -9
-1 -9 -8 0 -7 6 -13 13 -13 7 0 11 4 8 9 -3 4 0 8 5 8 10 0 16 -29 12 -53 -1
-5 3 -6 9 -2 6 3 8 10 5 15 -3 5 -1 11 4 15 6 3 8 -3 6 -15 -2 -11 1 -22 7
-26 7 -4 6 -9 -2 -14 -8 -5 -7 -9 5 -13 9 -4 13 -3 10 3 -3 6 -1 10 4 10 6 0
11 -5 11 -11 0 -5 4 -8 9 -4 5 3 13 0 17 -6 4 -8 3 -9 -4 -5 -8 5 -10 2 -6 -8
7 -19 24 -11 24 12 1 16 1 16 11 0 11 -19 39 -25 39 -8 0 5 -5 9 -11 7 -6 -1
-14 4 -16 11 -5 12 30 12 43 0 3 -4 13 -4 22 0 14 5 15 4 2 -10 -11 -11 -17
-13 -23 -4 -5 6 -6 3 -3 -9 5 -17 1 -20 -23 -20 -16 -1 -27 3 -25 7 3 4 0 8
-5 8 -6 0 -11 -3 -12 -7 0 -5 -2 -16 -4 -26 -2 -9 5 -22 15 -27 23 -12 40 -13
21 -1 -7 5 -10 14 -7 20 4 6 12 8 18 5 5 -3 28 13 50 37 23 24 43 43 45 41 2
-2 9 -2 16 1 9 3 9 7 -1 20 -12 14 -10 15 20 12 24 -3 29 -2 18 5 -13 9 -13
11 0 20 18 11 20 31 5 43 -6 5 -2 6 8 3 27 -9 40 3 25 22 -10 12 -10 14 0 8 7
-4 12 -2 12 4 0 6 5 8 13 4 9 -6 9 -4 -1 8 -10 13 -10 18 -1 24 8 4 9 3 5 -4
-4 -7 -2 -12 5 -12 7 0 9 8 6 21 -4 17 -3 19 6 10 18 -18 31 -13 16 6 -12 14
-12 16 0 8 11 -6 13 -4 8 9 -5 12 1 19 19 26 14 6 22 15 19 20 -4 6 -11 7 -17
4 -7 -4 -8 -2 -4 4 4 6 13 9 21 5 11 -4 14 0 9 13 -5 17 -4 17 11 -1 17 -20
17 -20 10 4 -6 18 -4 22 6 15 12 -6 12 -5 1 8 -11 13 -10 16 5 14 11 0 17 5
17 16 -1 10 2 15 7 12 5 -3 9 0 9 6 0 6 5 8 13 4 9 -6 9 -5 0 8 -15 18 -7 28
21 28 19 0 19 1 1 13 -17 13 -16 14 6 13 18 -1 25 5 27 22 2 12 8 20 13 17 13
-9 11 9 -3 24 -11 11 -9 11 9 2 23 -12 43 2 22 15 -8 5 -9 3 -4 -6 5 -9 4 -11
-4 -6 -16 11 -3 26 16 19 11 -4 14 -3 9 5 -4 7 -2 12 4 12 6 0 8 5 4 12 -5 8
-2 9 10 5 14 -6 17 -3 12 9 -5 14 -4 15 9 4 13 -11 14 -10 9 4 -4 10 0 18 10
22 22 8 20 25 -1 18 -15 -5 -16 -4 -3 5 8 6 23 11 33 11 14 0 17 5 11 22 -6
21 -5 22 11 8 17 -14 18 -13 12 2 -4 12 -2 15 9 11 10 -3 14 2 14 18 0 17 3
20 9 10 7 -11 10 -11 17 0 5 8 9 21 9 29 0 8 8 14 17 14 10 -1 17 1 16 5 -2
17 3 31 12 31 5 0 7 -8 3 -17 -3 -10 -3 -15 2 -11 4 4 8 18 9 30 1 15 7 23 19
22 15 -2 16 1 5 14 -11 13 -11 14 1 7 11 -6 13 -4 8 9 -4 9 -3 15 2 11 12 -7
53 50 43 60 -4 5 -1 5 6 1 14 -8 9 -20 -21 -53 -27 -30 -14 -29 16 1 13 13 23
33 22 44 -1 18 1 19 19 10 19 -10 20 -10 7 5 -12 15 -11 17 5 17 16 0 17 2 4
11 -12 9 -10 10 8 6 20 -5 22 -3 10 11 -7 9 -8 13 -2 9 11 -7 29 19 25 36 -1
5 3 6 9 2 6 -3 8 -10 5 -15 -3 -5 -1 -11 4 -15 6 -3 8 3 6 13 -2 10 5 25 16
33 10 7 19 19 19 26 0 7 4 13 10 13 5 0 7 -7 4 -15 -4 -8 -2 -15 4 -15 11 0
11 18 -1 37 -4 6 -2 15 4 19 8 4 9 3 5 -4 -4 -7 -1 -12 7 -12 9 0 13 9 12 24
-2 18 1 23 12 19 12 -5 12 -7 1 -14 -7 -5 -8 -9 -2 -9 19 0 24 13 11 28 -9 13
-9 14 1 8 7 -4 12 -1 12 8 0 9 5 16 11 16 5 0 7 -5 3 -12 -4 -7 -3 -8 5 -4 9
6 9 11 0 22 -9 11 -7 14 10 14 11 0 21 5 21 11 0 5 -4 8 -8 5 -5 -3 -9 1 -9 8
0 8 10 12 26 10 25 -3 26 -2 6 13 -16 13 -17 15 -2 10 9 -4 17 -2 17 3 0 6 7
10 15 10 14 0 20 13 15 35 -1 6 4 4 11 -2 7 -7 18 -13 23 -13 6 0 5 4 -3 9
-12 7 -12 13 -3 24 7 7 9 16 6 20 -3 3 5 4 19 3 19 -2 24 1 19 12 -3 10 -1 13
6 8 12 -7 16 5 12 33 -2 13 0 13 16 0 11 -9 15 -9 10 -1 -4 7 -1 15 9 18 8 4
14 13 13 22 -2 8 10 22 26 31 16 9 32 23 34 30 3 9 0 11 -8 6 -9 -6 -11 -4 -6
4 5 7 14 10 21 7 20 -7 26 5 12 22 -10 13 -9 15 4 10 9 -3 22 -2 30 4 11 8 10
9 -3 4 -10 -3 -18 -1 -18 4 0 6 4 10 10 10 5 0 6 8 3 18 -6 15 -5 16 12 2 17
-14 18 -14 7 7 -17 31 -15 40 4 17 8 -10 13 -14 10 -8 -3 6 5 22 17 35 12 13
21 27 20 31 -3 7 20 12 40 9 4 0 7 4 7 10 0 6 -7 9 -15 5 -13 -4 -14 -2 -5 14
6 11 13 20 16 20 3 0 2 -4 -1 -10 -3 -5 -1 -10 4 -10 11 0 14 11 9 27 -2 5 -7
7 -11 5 -5 -1 -6 2 -3 7 3 5 15 7 26 4 15 -4 20 0 20 13 0 16 -2 17 -10 4 -5
-8 -10 -10 -10 -4 0 18 13 24 27 12 11 -9 12 -7 7 7 -6 14 -4 16 7 10 12 -7
12 -6 1 7 -8 10 -9 19 -3 22 5 4 14 -2 20 -11 14 -25 14 -7 -1 20 -11 21 -10
21 8 7 10 -8 16 -10 12 -6 -4 5 3 19 17 31 13 13 21 26 18 29 -3 3 2 8 11 12
15 6 15 7 -1 21 -10 8 -12 12 -5 8 6 -3 12 -1 12 5 0 6 5 8 13 4 9 -6 9 -4 -1
8 -11 13 -10 16 5 14 10 0 18 4 18 9 0 6 3 15 7 21 4 6 6 21 3 33 -2 12 0 19
4 16 5 -3 12 2 15 11 3 8 11 12 17 8 8 -4 9 -3 5 4 -4 6 -14 9 -24 6 -15 -5
-15 -5 1 6 9 6 21 9 26 5 5 -3 13 0 17 6 4 7 3 9 -4 5 -6 -4 -10 1 -9 13 1 16
4 18 16 8 12 -10 13 -9 2 11 -9 17 -9 22 0 20 7 -2 16 12 21 30 5 20 15 32 26
33 10 0 12 3 5 6 -7 2 -13 9 -13 15 0 6 6 8 14 5 10 -4 12 0 9 14 -3 12 0 19
8 19 11 0 11 2 -1 10 -12 8 -12 10 -1 10 8 0 11 7 8 19 -3 14 -1 18 9 14 8 -3
14 -1 14 5 0 6 -6 13 -12 15 -8 3 -5 6 6 6 15 1 16 4 6 16 -11 13 -7 19 12 17
3 -1 12 5 18 13 10 12 10 19 -1 32 -10 11 -10 14 -1 9 8 -5 12 0 12 18 0 14 5
28 12 32 6 4 8 3 5 -3 -3 -5 0 -10 8 -10 13 0 12 4 -2 19 -9 11 -11 18 -5 18
7 0 12 5 12 11 0 5 -4 8 -8 5 -5 -3 -9 1 -9 9 0 11 5 12 20 3 15 -8 18 -7 12
3 -10 16 -15 59 -7 58 19 -3 23 3 12 16 -7 9 -10 18 -6 22 3 3 6 1 6 -5 0 -7
4 -12 10 -12 5 0 6 7 3 17 -5 12 -3 14 8 8 11 -6 11 -5 2 5 -6 7 -9 19 -6 28
5 11 3 13 -7 7 -9 -5 -11 -4 -6 4 4 6 12 8 18 5 8 -5 9 -1 4 11 -6 16 -4 16
11 4 12 -10 15 -10 9 -1 -4 7 -2 20 6 30 12 15 11 16 -5 3 -15 -12 -17 -11
-14 7 2 12 6 25 10 28 12 12 8 26 -5 18 -7 -4 -4 3 6 15 15 16 16 20 5 16 -10
-4 -16 0 -16 9 0 9 6 12 16 8 14 -5 13 -2 -2 21 -10 15 -14 26 -10 25 4 -2 9
1 10 7 1 5 10 12 20 16 17 7 17 8 1 8 -10 1 -18 6 -18 12 0 5 6 7 13 3 8 -5 7
-2 -2 9 -8 10 -11 20 -8 24 4 3 2 15 -4 26 -8 15 -8 18 1 12 8 -5 11 -3 8 6
-3 8 -11 13 -18 11 -11 -3 -11 0 0 12 15 19 24 21 14 4 -4 -7 -3 -9 1 -5 12
10 15 38 4 31 -5 -3 -9 2 -9 11 0 9 4 14 8 11 5 -3 9 1 9 9 0 8 -4 12 -9 9 -4
-3 -8 -1 -8 5 0 5 6 12 13 15 6 4 1 4 -13 2 -24 -5 -24 -4 -6 9 10 8 23 12 29
8 6 -3 7 -1 3 6 -4 6 -11 9 -16 6 -5 -3 -12 0 -16 6 -4 7 -3 9 4 5 6 -3 13 -2
16 3 4 5 -3 12 -14 16 -19 6 -18 7 8 31 15 14 22 23 15 20 -16 -8 -26 10 -29
53 -1 20 -4 51 -7 68 -2 18 -1 30 4 27 5 -3 9 0 9 5 0 6 -4 11 -9 11 -10 0 -5
45 6 63 4 6 -1 8 -11 4 -10 -4 -15 -3 -11 3 3 6 1 10 -5 10 -6 0 -8 5 -5 10 4
6 12 7 19 3 7 -4 4 0 -6 9 -17 16 -17 17 -1 21 17 4 17 5 1 6 -10 0 -18 6 -18
12 0 5 5 7 12 3 7 -5 8 -3 2 7 -4 8 -9 21 -11 29 -1 8 -7 16 -12 18 -15 5 -14
29 2 35 7 4 6 6 -5 6 -24 1 -28 23 -9 46 15 19 15 19 -3 5 -18 -14 -19 -13
-13 3 4 11 1 20 -8 23 -8 4 -15 15 -15 26 0 12 4 17 12 12 7 -4 8 -3 4 5 -4 6
-11 9 -16 6 -12 -7 -29 26 -22 44 3 9 0 11 -9 6 -8 -5 -11 -5 -7 0 4 4 3 14
-4 22 -6 7 -8 16 -4 20 3 3 6 1 6 -5 0 -7 5 -12 12 -12 6 0 4 7 -5 18 -10 10
-14 22 -11 25 4 4 -1 9 -10 13 -9 3 -13 11 -9 18 4 6 -2 4 -12 -4 -11 -9 -16
-10 -11 -2 4 7 2 12 -6 12 -9 0 -9 3 2 10 11 7 11 10 2 10 -8 0 -10 5 -6 13 4
6 4 9 -1 5 -13 -12 -49 12 -37 24 14 14 -7 61 -24 54 -7 -3 -18 2 -24 10 -7 8
-10 15 -6 15 3 1 10 2 15 3 22 3 20 14 -2 12 -22 -3 -25 1 -23 26 1 16 -1 31
-6 34 -5 3 -6 9 -4 13 3 4 -4 8 -15 8 -18 2 -18 0 3 -17 13 -11 20 -19 16 -20
-4 0 -17 8 -28 17 -13 11 -16 21 -10 29 7 8 5 16 -6 25 -13 11 -17 10 -25 -2
-13 -21 -11 -2 3 24 10 19 9 21 -4 9 -13 -10 -18 -10 -24 -1 -4 8 -3 9 4 5 7
-4 12 -2 12 5 0 6 -8 9 -20 6 -11 -3 -17 -1 -14 4 3 5 -2 12 -10 15 -9 3 -16
15 -16 25 0 10 -4 19 -8 19 -5 0 -14 10 -21 23 -12 22 -11 21 6 -33 2 -8 -1
-6 -8 5 -7 11 -17 23 -22 26 -5 4 -7 14 -4 24 4 9 3 14 -2 10 -5 -3 -17 3 -27
12 -17 17 -18 17 -11 0 5 -13 3 -16 -6 -10 -6 4 -16 8 -22 8 -5 0 -9 10 -9 23
1 18 -1 20 -12 11 -17 -14 -18 2 -1 20 10 10 7 10 -16 2 -35 -13 -47 -14 -27
-1 17 11 12 18 -18 23 -12 2 -25 7 -29 12 -5 4 -2 5 5 1 17 -10 15 9 -3 24 -8
7 -12 16 -9 21 3 5 -2 6 -10 3 -9 -3 -16 -10 -16 -16 0 -5 4 -7 9 -3 5 3 12 1
15 -4 4 -5 -2 -8 -11 -7 -10 2 -19 13 -21 24 -2 12 -8 22 -13 22 -6 0 -8 -4
-5 -8 3 -5 -1 -9 -9 -9 -8 0 -12 4 -9 9 3 4 -2 8 -10 8 -9 0 -16 4 -16 9 0 5
8 8 18 6 9 -1 11 0 4 2 -7 3 -9 10 -6 16 5 8 2 8 -7 0 -18 -17 -32 -16 -26 2
4 8 2 17 -4 20 -5 4 -7 10 -4 14 2 5 -9 7 -25 6 -22 -2 -34 3 -41 17 -5 10
-18 17 -27 16 -9 -2 -17 3 -18 10 -1 6 -2 16 -3 22 0 5 -8 7 -16 4 -9 -4 -24
4 -36 17 -11 13 -18 19 -15 13 3 -7 -3 -14 -14 -17 -11 -3 -18 -1 -15 3 10 16
-16 22 -32 8 -14 -11 -16 -11 -8 2 15 24 14 39 -1 33 -8 -3 -12 -9 -9 -13 3
-5 1 -12 -5 -15 -6 -4 -9 -1 -8 6 2 7 -2 13 -9 14 -6 0 -15 4 -20 9 -5 5 -2 6
6 1 9 -5 12 -4 7 3 -4 7 -14 12 -22 12 -9 0 -12 -5 -8 -12 4 -7 3 -8 -4 -4 -7
4 -12 13 -12 21 0 14 -17 15 -38 1 -11 -7 -12 -4 -3 13 7 12 8 21 4 20 -25 -4
-43 2 -37 13 5 7 3 8 -5 4 -7 -5 -22 0 -34 11 -17 14 -19 14 -9 1 11 -14 11
-16 -7 -11 -12 3 -18 9 -16 14 3 4 -4 6 -15 4 -11 -2 -26 2 -34 10 -8 9 -17
10 -23 4 -6 -6 -17 -2 -31 11 -14 13 -31 19 -47 16 -14 -3 -24 0 -22 6 1 6 -4
13 -12 16 -8 3 -11 0 -7 -6 8 -13 -23 -9 -51 7 -11 6 -25 6 -33 1 -15 -9 -54
16 -45 30 2 4 -2 7 -10 7 -11 0 -12 -4 -3 -14 6 -7 8 -16 4 -20 -3 -3 -6 -1
-6 6 0 9 -8 11 -21 8 -17 -5 -18 -3 -7 11 10 12 10 14 1 8 -9 -5 -13 -1 -14
11 0 15 -2 14 -9 -4 -5 -13 -17 -21 -29 -20 -11 0 -18 5 -15 9 3 4 12 4 22 1
13 -4 13 -2 -3 10 -17 13 -22 14 -36 1 -22 -20 -26 -18 -34 13 l-7 28 -13 -25
c-8 -14 -14 -20 -15 -14 0 7 -11 14 -25 16 -19 4 -23 2 -15 -7 7 -8 5 -12 -5
-12 -8 0 -15 7 -15 14 0 8 -5 11 -10 8 -6 -4 -7 -12 -3 -18 4 -7 0 -6 -10 2
-19 15 -23 26 -5 15 7 -4 8 -3 4 4 -4 6 -13 9 -22 5 -12 -4 -12 -8 -2 -22 11
-14 10 -14 -7 1 -19 15 -25 18 -41 18 -4 0 0 8 7 18 13 15 12 16 -3 3 -10 -7
-15 -17 -12 -22 3 -5 0 -9 -5 -9 -6 0 -11 5 -11 10 0 6 -7 10 -15 10 -8 0 -15
-6 -15 -12 0 -9 -3 -8 -9 2 -6 8 -7 18 -4 24 3 5 1 6 -6 2 -6 -4 -9 -11 -6
-16 3 -5 1 -11 -5 -15 -5 -3 -10 -1 -10 5 0 6 -5 8 -12 3 -22 -13 -40 -12 -34
2 6 17 -10 30 -19 15 -5 -8 -12 -7 -23 2 -9 7 -13 8 -9 2 4 -7 -2 -14 -13 -17
-12 -3 -24 1 -30 11 -6 12 -9 13 -10 3z m90 -16 c-14 -17 -30 -20 -30 -4 0 5
4 8 9 4 5 -3 12 -1 16 5 3 5 9 10 12 10 3 0 0 -7 -7 -15z m-110 -5 c0 -5 -5
-10 -11 -10 -5 0 -7 5 -4 10 3 6 8 10 11 10 2 0 4 -4 4 -10z m1409 -374 c8
-10 9 -16 1 -21 -6 -4 -9 -1 -8 7 2 7 -3 12 -10 10 -8 -1 -11 2 -7 8 8 13 10
13 24 -4z m-2810 -119 c-2 -1 -13 -9 -24 -17 -19 -14 -19 -14 -6 3 7 9 18 17
24 17 6 0 8 -1 6 -3z m3104 -122 c-3 -9 -8 -14 -10 -11 -3 3 -2 9 2 15 9 16
15 13 8 -4z m281 -331 c5 -14 4 -15 -9 -4 -17 14 -19 20 -6 20 5 0 12 -7 15
-16z m86 -120 c0 -8 -19 -13 -24 -6 -3 5 1 9 9 9 8 0 15 -2 15 -3z m-4080
-529 c-5 -7 -9 -14 -7 -16 1 -2 0 -3 -2 -1 -11 7 -7 29 5 29 9 0 11 -4 4 -12z
m45 -653 c-3 -3 -11 0 -18 7 -9 10 -8 11 6 5 10 -3 15 -9 12 -12z m4069 -294
c-3 -4 -9 -8 -15 -8 -5 0 -9 4 -9 8 0 5 7 9 15 9 8 0 12 -4 9 -9z m-194 -404
c0 -8 -19 -13 -24 -6 -3 5 1 9 9 9 8 0 15 -2 15 -3z m-70 -114 c-12 -16 -24
-30 -27 -30 -3 0 0 7 7 15 7 8 9 15 6 15 -10 0 17 29 27 30 5 0 -1 -13 -13
-30z m-3359 -113 c-10 -9 -11 -8 -5 6 3 10 9 15 12 12 3 -3 0 -11 -7 -18z
m194 -196 c3 -5 2 -12 -3 -15 -5 -3 -9 1 -9 9 0 17 3 19 12 6z m40 -61 c3 -5
1 -10 -4 -10 -6 0 -11 5 -11 10 0 6 2 10 4 10 3 0 8 -4 11 -10z m2765 -90 c0
-5 -5 -10 -11 -10 -5 0 -7 5 -4 10 3 6 8 10 11 10 2 0 4 -4 4 -10z m-2256
-446 c3 -8 2 -12 -4 -9 -6 3 -10 10 -10 16 0 14 7 11 14 -7z m966 -1009 c0 -2
-6 -8 -13 -14 -10 -8 -14 -7 -14 2 0 8 6 14 14 14 7 0 13 -1 13 -2z"/>
<path d="M2276 5473 c-6 -14 -5 -15 5 -6 7 7 10 15 7 18 -3 3 -9 -2 -12 -12z"/>
<path d="M3321 5463 c-1 -17 16 -25 25 -12 4 7 3 9 -4 5 -5 -3 -13 0 -15 6 -4
9 -6 10 -6 1z"/>
<path d="M3526 5408 c3 -4 9 -8 15 -8 5 0 9 4 9 8 0 5 -7 9 -15 9 -8 0 -12 -4
-9 -9z"/>
<path d="M3586 5388 c3 -5 10 -6 15 -3 13 9 11 12 -6 12 -8 0 -12 -4 -9 -9z"/>
<path d="M1783 5325 c0 -7 6 -11 14 -8 7 3 13 6 13 8 0 2 -6 5 -13 8 -8 3 -14
-1 -14 -8z"/>
<path d="M1746 5308 c3 -5 10 -6 15 -3 13 9 11 12 -6 12 -8 0 -12 -4 -9 -9z"/>
<path d="M3880 5276 c0 -2 7 -9 15 -16 9 -7 15 -8 15 -2 0 5 -7 12 -15 16 -8
3 -15 4 -15 2z"/>
<path d="M1680 5261 c0 -6 -8 -8 -18 -6 -11 2 -19 -3 -19 -11 0 -9 4 -11 12
-4 7 5 14 8 17 5 3 -3 11 1 18 10 8 10 9 15 1 15 -6 0 -11 -4 -11 -9z"/>
<path d="M4050 5169 c0 -5 5 -7 10 -4 6 3 10 8 10 11 0 2 -4 4 -10 4 -5 0 -10
-5 -10 -11z"/>
<path d="M4349 4943 c-13 -16 -12 -17 4 -4 16 13 21 21 13 21 -2 0 -10 -8 -17
-17z"/>
<path d="M1144 4929 c-3 -6 -2 -15 3 -20 5 -5 9 -1 9 11 0 23 -2 24 -12 9z"/>
<path d="M4486 4828 c3 -5 10 -6 15 -3 13 9 11 12 -6 12 -8 0 -12 -4 -9 -9z"/>
<path d="M4690 4540 c-9 -6 -10 -10 -3 -10 6 0 15 5 18 10 8 12 4 12 -15 0z"/>
<path d="M4795 4361 c-3 -5 -2 -12 3 -15 5 -3 9 1 9 9 0 17 -3 19 -12 6z"/>
<path d="M663 4005 c0 -7 6 -11 14 -8 7 3 13 6 13 8 0 2 -6 5 -13 8 -8 3 -14
-1 -14 -8z"/>
<path d="M4908 3923 c7 -3 16 -2 19 1 4 3 -2 6 -13 5 -11 0 -14 -3 -6 -6z"/>
<path d="M673 3375 c0 -8 4 -12 9 -9 5 3 6 10 3 15 -9 13 -12 11 -12 -6z"/>
<path d="M4910 3330 c-9 -6 -10 -10 -3 -10 6 0 15 5 18 10 8 12 4 12 -15 0z"/>
<path d="M4886 3232 c-3 -5 1 -9 9 -9 8 0 12 4 9 9 -3 4 -7 8 -9 8 -2 0 -6 -4
-9 -8z"/>
<path d="M4850 3129 c0 -5 5 -7 10 -4 6 3 10 8 10 11 0 2 -4 4 -10 4 -5 0 -10
-5 -10 -11z"/>
<path d="M4216 2008 c3 -4 11 -5 19 -1 21 7 19 12 -4 10 -11 0 -18 -5 -15 -9z"/>
<path d="M1513 1935 c0 -8 4 -12 9 -9 5 3 6 10 3 15 -9 13 -12 11 -12 -6z"/>
<path d="M4095 1890 c-3 -5 -1 -10 4 -10 6 0 11 5 11 10 0 6 -2 10 -4 10 -3 0
-8 -4 -11 -10z"/>
<path d="M2183 1254 c0 -7 4 -11 8 -8 4 2 10 -2 12 -8 4 -8 6 -7 6 3 1 9 -5
19 -12 22 -8 3 -14 -1 -14 -9z"/>
<path d="M2220 1230 c0 -6 7 -10 15 -10 8 0 15 2 15 4 0 2 -7 6 -15 10 -8 3
-15 1 -15 -4z"/>
<path d="M3455 1170 c3 -5 8 -10 11 -10 2 0 4 5 4 10 0 6 -5 10 -11 10 -5 0
-7 -4 -4 -10z"/>
<path d="M2478 952 c4 -11 7 -12 10 -4 3 10 7 10 20 0 14 -10 15 -10 5 2 -18
20 -43 22 -35 2z"/>
<path d="M2576 845 c4 -8 8 -15 10 -15 2 0 4 7 4 15 0 8 -4 15 -10 15 -5 0 -7
-7 -4 -15z"/>
<path d="M3157 819 c7 -7 15 -10 18 -7 3 3 -2 9 -12 12 -14 6 -15 5 -6 -5z"/>
<path d="M2671 734 c0 -11 3 -14 6 -6 3 7 2 16 -1 19 -3 4 -6 -2 -5 -13z"/>
<path d="M2969 569 c-13 -11 -19 -18 -12 -15 6 4 14 2 18 -4 3 -5 2 -10 -3
-10 -6 0 -8 -16 -5 -36 4 -28 2 -35 -9 -31 -7 2 -12 9 -11 14 3 15 -30 12 -49
-4 -9 -8 -15 -22 -13 -31 2 -9 4 -19 4 -22 1 -3 6 2 11 10 7 12 9 10 7 -7 -1
-16 -5 -19 -13 -12 -8 7 -14 6 -19 -1 -3 -5 -1 -10 6 -10 7 0 10 -3 6 -6 -3
-4 -17 3 -31 14 -23 18 -24 21 -8 28 9 4 20 7 24 6 4 -1 5 5 1 13 -4 11 -9 12
-17 5 -9 -7 -12 -4 -12 13 1 19 -4 22 -31 19 -20 -1 -33 3 -33 10 0 17 -10 3
-15 -21 -2 -12 0 -19 6 -16 5 4 6 11 3 17 -4 7 -2 8 5 4 6 -4 9 -12 5 -17 -3
-5 0 -18 8 -27 12 -15 11 -16 -4 -4 -11 9 -18 10 -23 2 -3 -5 -1 -10 5 -10 6
0 8 -5 4 -12 -4 -7 -3 -8 4 -4 7 4 11 -3 9 -22 -1 -19 -6 -28 -15 -25 -10 4
-10 8 0 22 12 14 11 15 -5 2 -17 -13 -17 -15 0 -34 18 -19 17 -20 -5 -8 -22
12 -23 11 -13 -8 7 -13 8 -22 1 -26 -15 -9 -12 -21 8 -41 16 -17 16 -17 -4
-12 -22 6 -26 -5 -11 -29 5 -7 6 -17 2 -22 -3 -5 2 -16 10 -24 11 -12 12 -17
2 -20 -9 -4 -8 -8 3 -16 13 -10 13 -11 0 -12 -10 0 -8 -3 5 -9 11 -5 15 -9 8
-9 -7 -1 -10 -8 -7 -16 4 -8 10 -13 14 -10 4 3 7 -3 6 -13 0 -9 4 -16 10 -15
6 1 11 -5 11 -13 0 -11 -5 -10 -22 6 -12 11 -25 20 -30 20 -4 0 2 -8 13 -19
12 -10 19 -21 16 -24 -10 -9 19 -2 43 11 16 9 24 9 29 0 4 -6 3 -8 -4 -4 -6 3
-13 3 -16 -2 -2 -4 6 -8 19 -8 15 0 21 5 18 13 -4 9 0 11 13 6 13 -5 15 -3 9
8 -8 12 -6 12 9 0 9 -8 15 -20 12 -28 -3 -8 -1 -11 4 -8 6 3 10 13 10 21 0 8
5 12 10 9 6 -4 8 -10 5 -15 -7 -11 22 -7 32 5 5 4 1 5 -7 0 -9 -5 -12 -5 -7 1
5 5 21 9 35 10 16 0 26 6 24 13 -1 7 2 10 8 6 17 -10 -8 -35 -28 -29 -13 4
-12 3 2 -7 16 -10 21 -8 30 7 6 11 11 23 11 27 0 4 5 11 10 15 6 4 11 16 13
27 2 16 1 17 -7 5 -8 -12 -10 -11 -8 7 0 12 4 20 8 17 4 -2 10 3 13 12 4 12 2
15 -9 10 -8 -3 -15 -3 -15 0 0 2 10 9 23 14 15 6 17 9 6 9 -20 1 -33 28 -13
28 7 0 10 -5 7 -10 -4 -6 -1 -7 6 -2 9 5 10 10 2 18 -15 15 -14 40 2 31 6 -4
3 3 -8 16 -15 18 -16 22 -4 18 10 -4 16 -1 16 8 0 8 -6 13 -13 10 -8 -3 -16 0
-20 6 -4 7 -3 8 4 4 7 -4 12 -2 12 4 0 6 5 8 12 4 7 -4 8 -3 4 4 -4 6 -12 9
-20 6 -7 -3 -13 2 -13 10 0 8 6 12 13 9 16 -6 12 26 -5 36 -16 11 -17 12 -2
39 9 16 9 22 0 22 -7 0 -9 9 -6 21 5 17 3 18 -11 7 -13 -11 -15 -11 -10 3 5
12 1 15 -18 11 -28 -5 -32 -22 -6 -23 14 0 14 -2 -3 -9 -22 -9 -21 -10 12 -14
13 -2 26 -6 30 -11 5 -4 -2 -4 -14 -1 -12 4 -24 2 -28 -4 -3 -6 -11 -8 -16 -5
-5 4 -10 1 -10 -4 -1 -6 -2 -15 -3 -20 0 -6 -8 -16 -16 -23 -12 -11 -12 -11 0
6 14 17 13 18 -7 12 -15 -5 -21 -3 -19 6 6 28 19 47 34 53 10 2 18 16 18 30 1
14 -2 22 -8 19 -6 -4 -5 2 1 14 6 11 16 23 23 25 10 4 10 6 -1 6 -11 1 -11 4
-1 16 19 22 -4 18 -31 -6z m-30 -93 c9 -10 8 -16 -4 -26 -10 -9 -15 -9 -15 -1
0 6 5 11 11 11 5 0 7 5 3 11 -4 8 -9 8 -17 0 -17 -17 -31 -13 -17 4 15 19 24
19 39 1z m75 -68 c-3 -4 -9 -8 -15 -8 -5 0 -9 4 -9 8 0 5 7 9 15 9 8 0 12 -4
9 -9z m-249 -158 c3 -5 2 -10 -4 -10 -5 0 -13 5 -16 10 -3 6 -2 10 4 10 5 0
13 -4 16 -10z m2 -35 c0 -8 -4 -12 -9 -9 -5 3 -6 10 -3 15 9 13 12 11 12 -6z"/>
<path d="M2798 543 c6 -2 12 -9 12 -14 0 -6 -4 -7 -10 -4 -5 3 -10 2 -10 -4 0
-5 9 -9 20 -8 24 2 27 22 4 31 -9 3 -19 6 -22 5 -4 0 -1 -3 6 -6z"/>
<path d="M2935 531 c-3 -5 -2 -12 3 -15 5 -3 9 1 9 9 0 17 -3 19 -12 6z"/>
<path d="M2992 531 c4 -13 18 -16 19 -4 0 4 -5 9 -11 12 -7 2 -11 -2 -8 -8z"/>
<path d="M2960 440 c-19 -15 -21 -20 -9 -20 9 0 20 7 23 16 3 8 11 12 17 8 8
-4 9 -3 5 4 -9 15 -6 15 -36 -8z"/>
<path d="M2856 441 c-4 -5 -2 -12 3 -15 5 -4 12 -2 15 3 4 5 2 12 -3 15 -5 4
-12 2 -15 -3z"/>
<path d="M3065 431 c-3 -5 -2 -12 3 -15 5 -3 9 1 9 9 0 17 -3 19 -12 6z"/>
</g>
</svg>
